<mxfile host="Electron" modified="2023-07-26T12:14:27.334Z" agent="Mozilla/5.0 (Windows NT 10.0; Win64; x64) AppleWebKit/537.36 (KHTML, like Gecko) draw.io/21.6.5 Chrome/114.0.5735.243 Electron/25.3.1 Safari/537.36" etag="gDHHwnDN7M8xyItYY3UH" version="21.6.5" type="device">
  <diagram name="Página-1" id="Qs822z8Z0aMT79xOJduJ">
    <mxGraphModel dx="1037" dy="610" grid="1" gridSize="10" guides="1" tooltips="1" connect="1" arrows="1" fold="1" page="1" pageScale="1" pageWidth="827" pageHeight="1169" math="0" shadow="0">
      <root>
        <mxCell id="0" />
        <mxCell id="1" parent="0" />
        <mxCell id="fzhDktdGtB8mcGzhvgvL-1" value="Você deverá criar a modelagem para o catálogo de filmes, observando a seguinte situação:&#xa;&#xa;&#xa;- um filme possui apenas um único gênero.&#xa;- um gênero pode definir mais de um filme." style="text;whiteSpace=wrap;" parent="1" vertex="1">
          <mxGeometry x="154" y="110" width="520" height="100" as="geometry" />
        </mxCell>
        <mxCell id="fzhDktdGtB8mcGzhvgvL-2" value="" style="rounded=0;whiteSpace=wrap;html=1;" parent="1" vertex="1">
          <mxGeometry x="154" y="330" width="120" height="60" as="geometry" />
        </mxCell>
        <mxCell id="fzhDktdGtB8mcGzhvgvL-3" value="" style="rounded=0;whiteSpace=wrap;html=1;" parent="1" vertex="1">
          <mxGeometry x="530" y="330" width="120" height="60" as="geometry" />
        </mxCell>
        <mxCell id="fzhDktdGtB8mcGzhvgvL-4" value="Representação da entidade" style="text;html=1;strokeColor=none;fillColor=none;align=center;verticalAlign=middle;whiteSpace=wrap;rounded=0;" parent="1" vertex="1">
          <mxGeometry x="171" y="410" width="86" height="30" as="geometry" />
        </mxCell>
        <mxCell id="fzhDktdGtB8mcGzhvgvL-5" value="Filme" style="text;html=1;strokeColor=none;fillColor=none;align=center;verticalAlign=middle;whiteSpace=wrap;rounded=0;" parent="1" vertex="1">
          <mxGeometry x="184" y="345" width="60" height="30" as="geometry" />
        </mxCell>
        <mxCell id="fzhDktdGtB8mcGzhvgvL-6" value="Genero" style="text;html=1;strokeColor=none;fillColor=none;align=center;verticalAlign=middle;whiteSpace=wrap;rounded=0;" parent="1" vertex="1">
          <mxGeometry x="560" y="345" width="60" height="30" as="geometry" />
        </mxCell>
        <mxCell id="fzhDktdGtB8mcGzhvgvL-8" value="" style="edgeStyle=orthogonalEdgeStyle;rounded=0;orthogonalLoop=1;jettySize=auto;html=1;endArrow=none;endFill=0;" parent="1" source="fzhDktdGtB8mcGzhvgvL-7" target="fzhDktdGtB8mcGzhvgvL-3" edge="1">
          <mxGeometry relative="1" as="geometry" />
        </mxCell>
        <mxCell id="fzhDktdGtB8mcGzhvgvL-9" value="" style="edgeStyle=orthogonalEdgeStyle;rounded=0;orthogonalLoop=1;jettySize=auto;html=1;endArrow=none;endFill=0;entryX=1;entryY=0.5;entryDx=0;entryDy=0;" parent="1" source="fzhDktdGtB8mcGzhvgvL-7" target="fzhDktdGtB8mcGzhvgvL-2" edge="1">
          <mxGeometry relative="1" as="geometry">
            <mxPoint x="280" y="360" as="targetPoint" />
          </mxGeometry>
        </mxCell>
        <mxCell id="fzhDktdGtB8mcGzhvgvL-7" value="possui" style="rhombus;whiteSpace=wrap;html=1;" parent="1" vertex="1">
          <mxGeometry x="360" y="320" width="80" height="80" as="geometry" />
        </mxCell>
        <mxCell id="fzhDktdGtB8mcGzhvgvL-10" value="1" style="text;html=1;strokeColor=none;fillColor=none;align=center;verticalAlign=middle;whiteSpace=wrap;rounded=0;" parent="1" vertex="1">
          <mxGeometry x="490" y="330" width="60" height="30" as="geometry" />
        </mxCell>
        <mxCell id="fzhDktdGtB8mcGzhvgvL-11" value="N" style="text;html=1;strokeColor=none;fillColor=none;align=center;verticalAlign=middle;whiteSpace=wrap;rounded=0;" parent="1" vertex="1">
          <mxGeometry x="257" y="330" width="60" height="30" as="geometry" />
        </mxCell>
        <mxCell id="HLsXiNpCE6HjZC6dJwlh-1" value="Genero" style="shape=table;startSize=30;container=1;collapsible=1;childLayout=tableLayout;fixedRows=1;rowLines=0;fontStyle=1;align=center;resizeLast=1;html=1;" vertex="1" parent="1">
          <mxGeometry x="124" y="500" width="180" height="90" as="geometry" />
        </mxCell>
        <mxCell id="HLsXiNpCE6HjZC6dJwlh-2" value="" style="shape=tableRow;horizontal=0;startSize=0;swimlaneHead=0;swimlaneBody=0;fillColor=none;collapsible=0;dropTarget=0;points=[[0,0.5],[1,0.5]];portConstraint=eastwest;top=0;left=0;right=0;bottom=1;" vertex="1" parent="HLsXiNpCE6HjZC6dJwlh-1">
          <mxGeometry y="30" width="180" height="30" as="geometry" />
        </mxCell>
        <mxCell id="HLsXiNpCE6HjZC6dJwlh-3" value="PK" style="shape=partialRectangle;connectable=0;fillColor=none;top=0;left=0;bottom=0;right=0;fontStyle=1;overflow=hidden;whiteSpace=wrap;html=1;" vertex="1" parent="HLsXiNpCE6HjZC6dJwlh-2">
          <mxGeometry width="30" height="30" as="geometry">
            <mxRectangle width="30" height="30" as="alternateBounds" />
          </mxGeometry>
        </mxCell>
        <mxCell id="HLsXiNpCE6HjZC6dJwlh-4" value="IdGenero" style="shape=partialRectangle;connectable=0;fillColor=none;top=0;left=0;bottom=0;right=0;align=left;spacingLeft=6;fontStyle=5;overflow=hidden;whiteSpace=wrap;html=1;" vertex="1" parent="HLsXiNpCE6HjZC6dJwlh-2">
          <mxGeometry x="30" width="150" height="30" as="geometry">
            <mxRectangle width="150" height="30" as="alternateBounds" />
          </mxGeometry>
        </mxCell>
        <mxCell id="HLsXiNpCE6HjZC6dJwlh-5" value="" style="shape=tableRow;horizontal=0;startSize=0;swimlaneHead=0;swimlaneBody=0;fillColor=none;collapsible=0;dropTarget=0;points=[[0,0.5],[1,0.5]];portConstraint=eastwest;top=0;left=0;right=0;bottom=0;" vertex="1" parent="HLsXiNpCE6HjZC6dJwlh-1">
          <mxGeometry y="60" width="180" height="30" as="geometry" />
        </mxCell>
        <mxCell id="HLsXiNpCE6HjZC6dJwlh-6" value="" style="shape=partialRectangle;connectable=0;fillColor=none;top=0;left=0;bottom=0;right=0;editable=1;overflow=hidden;whiteSpace=wrap;html=1;" vertex="1" parent="HLsXiNpCE6HjZC6dJwlh-5">
          <mxGeometry width="30" height="30" as="geometry">
            <mxRectangle width="30" height="30" as="alternateBounds" />
          </mxGeometry>
        </mxCell>
        <mxCell id="HLsXiNpCE6HjZC6dJwlh-7" value="NomeGenero" style="shape=partialRectangle;connectable=0;fillColor=none;top=0;left=0;bottom=0;right=0;align=left;spacingLeft=6;overflow=hidden;whiteSpace=wrap;html=1;" vertex="1" parent="HLsXiNpCE6HjZC6dJwlh-5">
          <mxGeometry x="30" width="150" height="30" as="geometry">
            <mxRectangle width="150" height="30" as="alternateBounds" />
          </mxGeometry>
        </mxCell>
        <mxCell id="HLsXiNpCE6HjZC6dJwlh-14" value="Filmes" style="shape=table;startSize=30;container=1;collapsible=1;childLayout=tableLayout;fixedRows=1;rowLines=0;fontStyle=1;align=center;resizeLast=1;html=1;whiteSpace=wrap;" vertex="1" parent="1">
          <mxGeometry x="500" y="500" width="180" height="120" as="geometry" />
        </mxCell>
        <mxCell id="HLsXiNpCE6HjZC6dJwlh-15" value="" style="shape=tableRow;horizontal=0;startSize=0;swimlaneHead=0;swimlaneBody=0;fillColor=none;collapsible=0;dropTarget=0;points=[[0,0.5],[1,0.5]];portConstraint=eastwest;top=0;left=0;right=0;bottom=0;html=1;" vertex="1" parent="HLsXiNpCE6HjZC6dJwlh-14">
          <mxGeometry y="30" width="180" height="30" as="geometry" />
        </mxCell>
        <mxCell id="HLsXiNpCE6HjZC6dJwlh-16" value="PK" style="shape=partialRectangle;connectable=0;fillColor=none;top=0;left=0;bottom=0;right=0;fontStyle=1;overflow=hidden;html=1;whiteSpace=wrap;" vertex="1" parent="HLsXiNpCE6HjZC6dJwlh-15">
          <mxGeometry width="60" height="30" as="geometry">
            <mxRectangle width="60" height="30" as="alternateBounds" />
          </mxGeometry>
        </mxCell>
        <mxCell id="HLsXiNpCE6HjZC6dJwlh-17" value="IdFilmes" style="shape=partialRectangle;connectable=0;fillColor=none;top=0;left=0;bottom=0;right=0;align=left;spacingLeft=6;fontStyle=5;overflow=hidden;html=1;whiteSpace=wrap;" vertex="1" parent="HLsXiNpCE6HjZC6dJwlh-15">
          <mxGeometry x="60" width="120" height="30" as="geometry">
            <mxRectangle width="120" height="30" as="alternateBounds" />
          </mxGeometry>
        </mxCell>
        <mxCell id="HLsXiNpCE6HjZC6dJwlh-18" value="" style="shape=tableRow;horizontal=0;startSize=0;swimlaneHead=0;swimlaneBody=0;fillColor=none;collapsible=0;dropTarget=0;points=[[0,0.5],[1,0.5]];portConstraint=eastwest;top=0;left=0;right=0;bottom=1;html=1;" vertex="1" parent="HLsXiNpCE6HjZC6dJwlh-14">
          <mxGeometry y="60" width="180" height="30" as="geometry" />
        </mxCell>
        <mxCell id="HLsXiNpCE6HjZC6dJwlh-19" value="FK" style="shape=partialRectangle;connectable=0;fillColor=none;top=0;left=0;bottom=0;right=0;fontStyle=1;overflow=hidden;html=1;whiteSpace=wrap;" vertex="1" parent="HLsXiNpCE6HjZC6dJwlh-18">
          <mxGeometry width="60" height="30" as="geometry">
            <mxRectangle width="60" height="30" as="alternateBounds" />
          </mxGeometry>
        </mxCell>
        <mxCell id="HLsXiNpCE6HjZC6dJwlh-20" value="IdGenero" style="shape=partialRectangle;connectable=0;fillColor=none;top=0;left=0;bottom=0;right=0;align=left;spacingLeft=6;fontStyle=5;overflow=hidden;html=1;whiteSpace=wrap;" vertex="1" parent="HLsXiNpCE6HjZC6dJwlh-18">
          <mxGeometry x="60" width="120" height="30" as="geometry">
            <mxRectangle width="120" height="30" as="alternateBounds" />
          </mxGeometry>
        </mxCell>
        <mxCell id="HLsXiNpCE6HjZC6dJwlh-21" value="" style="shape=tableRow;horizontal=0;startSize=0;swimlaneHead=0;swimlaneBody=0;fillColor=none;collapsible=0;dropTarget=0;points=[[0,0.5],[1,0.5]];portConstraint=eastwest;top=0;left=0;right=0;bottom=0;html=1;" vertex="1" parent="HLsXiNpCE6HjZC6dJwlh-14">
          <mxGeometry y="90" width="180" height="30" as="geometry" />
        </mxCell>
        <mxCell id="HLsXiNpCE6HjZC6dJwlh-22" value="" style="shape=partialRectangle;connectable=0;fillColor=none;top=0;left=0;bottom=0;right=0;editable=1;overflow=hidden;html=1;whiteSpace=wrap;" vertex="1" parent="HLsXiNpCE6HjZC6dJwlh-21">
          <mxGeometry width="60" height="30" as="geometry">
            <mxRectangle width="60" height="30" as="alternateBounds" />
          </mxGeometry>
        </mxCell>
        <mxCell id="HLsXiNpCE6HjZC6dJwlh-23" value="NomeFIlme" style="shape=partialRectangle;connectable=0;fillColor=none;top=0;left=0;bottom=0;right=0;align=left;spacingLeft=6;overflow=hidden;html=1;whiteSpace=wrap;" vertex="1" parent="HLsXiNpCE6HjZC6dJwlh-21">
          <mxGeometry x="60" width="120" height="30" as="geometry">
            <mxRectangle width="120" height="30" as="alternateBounds" />
          </mxGeometry>
        </mxCell>
        <mxCell id="HLsXiNpCE6HjZC6dJwlh-27" value="" style="edgeStyle=entityRelationEdgeStyle;fontSize=12;html=1;endArrow=ERoneToMany;rounded=0;exitX=1;exitY=0.5;exitDx=0;exitDy=0;entryX=0;entryY=0.5;entryDx=0;entryDy=0;" edge="1" parent="1" source="HLsXiNpCE6HjZC6dJwlh-2" target="HLsXiNpCE6HjZC6dJwlh-18">
          <mxGeometry width="100" height="100" relative="1" as="geometry">
            <mxPoint x="400" y="670" as="sourcePoint" />
            <mxPoint x="500" y="570" as="targetPoint" />
          </mxGeometry>
        </mxCell>
        <mxCell id="HLsXiNpCE6HjZC6dJwlh-28" value="Conceitual" style="rounded=0;whiteSpace=wrap;html=1;fillColor=#f8cecc;strokeColor=#b85450;" vertex="1" parent="1">
          <mxGeometry x="370" y="260" width="60" height="30" as="geometry" />
        </mxCell>
        <mxCell id="HLsXiNpCE6HjZC6dJwlh-29" value="Lógico" style="rounded=0;whiteSpace=wrap;html=1;fillColor=#f8cecc;strokeColor=#b85450;" vertex="1" parent="1">
          <mxGeometry x="370" y="450" width="60" height="30" as="geometry" />
        </mxCell>
        <mxCell id="HLsXiNpCE6HjZC6dJwlh-30" value="Genero" style="shape=table;startSize=30;container=1;collapsible=0;childLayout=tableLayout;strokeColor=default;fontSize=16;" vertex="1" parent="1">
          <mxGeometry x="110" y="690" width="151" height="150" as="geometry" />
        </mxCell>
        <mxCell id="HLsXiNpCE6HjZC6dJwlh-31" value="" style="shape=tableRow;horizontal=0;startSize=0;swimlaneHead=0;swimlaneBody=0;strokeColor=inherit;top=0;left=0;bottom=0;right=0;collapsible=0;dropTarget=0;fillColor=none;points=[[0,0.5],[1,0.5]];portConstraint=eastwest;fontSize=16;" vertex="1" parent="HLsXiNpCE6HjZC6dJwlh-30">
          <mxGeometry y="30" width="151" height="40" as="geometry" />
        </mxCell>
        <mxCell id="HLsXiNpCE6HjZC6dJwlh-32" value="IdGenero&lt;span style=&quot;white-space: pre;&quot;&gt;&#x9;&lt;/span&gt;&lt;span style=&quot;white-space: pre;&quot;&gt;&#x9;&lt;/span&gt;" style="shape=partialRectangle;html=1;whiteSpace=wrap;connectable=0;strokeColor=inherit;overflow=hidden;fillColor=none;top=0;left=0;bottom=0;right=0;pointerEvents=1;fontSize=16;" vertex="1" parent="HLsXiNpCE6HjZC6dJwlh-31">
          <mxGeometry width="70" height="40" as="geometry">
            <mxRectangle width="70" height="40" as="alternateBounds" />
          </mxGeometry>
        </mxCell>
        <mxCell id="HLsXiNpCE6HjZC6dJwlh-33" value="NomeGen" style="shape=partialRectangle;html=1;whiteSpace=wrap;connectable=0;strokeColor=inherit;overflow=hidden;fillColor=none;top=0;left=0;bottom=0;right=0;pointerEvents=1;fontSize=16;" vertex="1" parent="HLsXiNpCE6HjZC6dJwlh-31">
          <mxGeometry x="70" width="81" height="40" as="geometry">
            <mxRectangle width="81" height="40" as="alternateBounds" />
          </mxGeometry>
        </mxCell>
        <mxCell id="HLsXiNpCE6HjZC6dJwlh-35" value="" style="shape=tableRow;horizontal=0;startSize=0;swimlaneHead=0;swimlaneBody=0;strokeColor=inherit;top=0;left=0;bottom=0;right=0;collapsible=0;dropTarget=0;fillColor=none;points=[[0,0.5],[1,0.5]];portConstraint=eastwest;fontSize=16;" vertex="1" parent="HLsXiNpCE6HjZC6dJwlh-30">
          <mxGeometry y="70" width="151" height="40" as="geometry" />
        </mxCell>
        <mxCell id="HLsXiNpCE6HjZC6dJwlh-36" value="1" style="shape=partialRectangle;html=1;whiteSpace=wrap;connectable=0;strokeColor=inherit;overflow=hidden;fillColor=none;top=0;left=0;bottom=0;right=0;pointerEvents=1;fontSize=16;" vertex="1" parent="HLsXiNpCE6HjZC6dJwlh-35">
          <mxGeometry width="70" height="40" as="geometry">
            <mxRectangle width="70" height="40" as="alternateBounds" />
          </mxGeometry>
        </mxCell>
        <mxCell id="HLsXiNpCE6HjZC6dJwlh-37" value="Terror&lt;br&gt;" style="shape=partialRectangle;html=1;whiteSpace=wrap;connectable=0;strokeColor=inherit;overflow=hidden;fillColor=none;top=0;left=0;bottom=0;right=0;pointerEvents=1;fontSize=16;" vertex="1" parent="HLsXiNpCE6HjZC6dJwlh-35">
          <mxGeometry x="70" width="81" height="40" as="geometry">
            <mxRectangle width="81" height="40" as="alternateBounds" />
          </mxGeometry>
        </mxCell>
        <mxCell id="HLsXiNpCE6HjZC6dJwlh-39" value="" style="shape=tableRow;horizontal=0;startSize=0;swimlaneHead=0;swimlaneBody=0;strokeColor=inherit;top=0;left=0;bottom=0;right=0;collapsible=0;dropTarget=0;fillColor=none;points=[[0,0.5],[1,0.5]];portConstraint=eastwest;fontSize=16;" vertex="1" parent="HLsXiNpCE6HjZC6dJwlh-30">
          <mxGeometry y="110" width="151" height="40" as="geometry" />
        </mxCell>
        <mxCell id="HLsXiNpCE6HjZC6dJwlh-40" value="2" style="shape=partialRectangle;html=1;whiteSpace=wrap;connectable=0;strokeColor=inherit;overflow=hidden;fillColor=none;top=0;left=0;bottom=0;right=0;pointerEvents=1;fontSize=16;" vertex="1" parent="HLsXiNpCE6HjZC6dJwlh-39">
          <mxGeometry width="70" height="40" as="geometry">
            <mxRectangle width="70" height="40" as="alternateBounds" />
          </mxGeometry>
        </mxCell>
        <mxCell id="HLsXiNpCE6HjZC6dJwlh-41" value="Suspense" style="shape=partialRectangle;html=1;whiteSpace=wrap;connectable=0;strokeColor=inherit;overflow=hidden;fillColor=none;top=0;left=0;bottom=0;right=0;pointerEvents=1;fontSize=16;" vertex="1" parent="HLsXiNpCE6HjZC6dJwlh-39">
          <mxGeometry x="70" width="81" height="40" as="geometry">
            <mxRectangle width="81" height="40" as="alternateBounds" />
          </mxGeometry>
        </mxCell>
        <mxCell id="HLsXiNpCE6HjZC6dJwlh-43" value="Filmes" style="shape=table;startSize=30;container=1;collapsible=0;childLayout=tableLayout;strokeColor=default;fontSize=16;" vertex="1" parent="1">
          <mxGeometry x="490" y="690" width="230" height="150" as="geometry" />
        </mxCell>
        <mxCell id="HLsXiNpCE6HjZC6dJwlh-44" value="" style="shape=tableRow;horizontal=0;startSize=0;swimlaneHead=0;swimlaneBody=0;strokeColor=inherit;top=0;left=0;bottom=0;right=0;collapsible=0;dropTarget=0;fillColor=none;points=[[0,0.5],[1,0.5]];portConstraint=eastwest;fontSize=16;" vertex="1" parent="HLsXiNpCE6HjZC6dJwlh-43">
          <mxGeometry y="30" width="230" height="40" as="geometry" />
        </mxCell>
        <mxCell id="HLsXiNpCE6HjZC6dJwlh-45" value="idFilmes&lt;span style=&quot;white-space: pre;&quot;&gt;&#x9;&lt;/span&gt;" style="shape=partialRectangle;html=1;whiteSpace=wrap;connectable=0;strokeColor=inherit;overflow=hidden;fillColor=none;top=0;left=0;bottom=0;right=0;pointerEvents=1;fontSize=16;" vertex="1" parent="HLsXiNpCE6HjZC6dJwlh-44">
          <mxGeometry width="77" height="40" as="geometry">
            <mxRectangle width="77" height="40" as="alternateBounds" />
          </mxGeometry>
        </mxCell>
        <mxCell id="HLsXiNpCE6HjZC6dJwlh-46" value="IdGenero" style="shape=partialRectangle;html=1;whiteSpace=wrap;connectable=0;strokeColor=inherit;overflow=hidden;fillColor=none;top=0;left=0;bottom=0;right=0;pointerEvents=1;fontSize=16;" vertex="1" parent="HLsXiNpCE6HjZC6dJwlh-44">
          <mxGeometry x="77" width="76" height="40" as="geometry">
            <mxRectangle width="76" height="40" as="alternateBounds" />
          </mxGeometry>
        </mxCell>
        <mxCell id="HLsXiNpCE6HjZC6dJwlh-47" value="NomeFilme" style="shape=partialRectangle;html=1;whiteSpace=wrap;connectable=0;strokeColor=inherit;overflow=hidden;fillColor=none;top=0;left=0;bottom=0;right=0;pointerEvents=1;fontSize=16;" vertex="1" parent="HLsXiNpCE6HjZC6dJwlh-44">
          <mxGeometry x="153" width="77" height="40" as="geometry">
            <mxRectangle width="77" height="40" as="alternateBounds" />
          </mxGeometry>
        </mxCell>
        <mxCell id="HLsXiNpCE6HjZC6dJwlh-48" value="" style="shape=tableRow;horizontal=0;startSize=0;swimlaneHead=0;swimlaneBody=0;strokeColor=inherit;top=0;left=0;bottom=0;right=0;collapsible=0;dropTarget=0;fillColor=none;points=[[0,0.5],[1,0.5]];portConstraint=eastwest;fontSize=16;" vertex="1" parent="HLsXiNpCE6HjZC6dJwlh-43">
          <mxGeometry y="70" width="230" height="40" as="geometry" />
        </mxCell>
        <mxCell id="HLsXiNpCE6HjZC6dJwlh-49" value="1" style="shape=partialRectangle;html=1;whiteSpace=wrap;connectable=0;strokeColor=inherit;overflow=hidden;fillColor=none;top=0;left=0;bottom=0;right=0;pointerEvents=1;fontSize=16;" vertex="1" parent="HLsXiNpCE6HjZC6dJwlh-48">
          <mxGeometry width="77" height="40" as="geometry">
            <mxRectangle width="77" height="40" as="alternateBounds" />
          </mxGeometry>
        </mxCell>
        <mxCell id="HLsXiNpCE6HjZC6dJwlh-50" value="2" style="shape=partialRectangle;html=1;whiteSpace=wrap;connectable=0;strokeColor=inherit;overflow=hidden;fillColor=none;top=0;left=0;bottom=0;right=0;pointerEvents=1;fontSize=16;" vertex="1" parent="HLsXiNpCE6HjZC6dJwlh-48">
          <mxGeometry x="77" width="76" height="40" as="geometry">
            <mxRectangle width="76" height="40" as="alternateBounds" />
          </mxGeometry>
        </mxCell>
        <mxCell id="HLsXiNpCE6HjZC6dJwlh-51" value="Run!" style="shape=partialRectangle;html=1;whiteSpace=wrap;connectable=0;strokeColor=inherit;overflow=hidden;fillColor=none;top=0;left=0;bottom=0;right=0;pointerEvents=1;fontSize=16;" vertex="1" parent="HLsXiNpCE6HjZC6dJwlh-48">
          <mxGeometry x="153" width="77" height="40" as="geometry">
            <mxRectangle width="77" height="40" as="alternateBounds" />
          </mxGeometry>
        </mxCell>
        <mxCell id="HLsXiNpCE6HjZC6dJwlh-52" value="" style="shape=tableRow;horizontal=0;startSize=0;swimlaneHead=0;swimlaneBody=0;strokeColor=inherit;top=0;left=0;bottom=0;right=0;collapsible=0;dropTarget=0;fillColor=none;points=[[0,0.5],[1,0.5]];portConstraint=eastwest;fontSize=16;" vertex="1" parent="HLsXiNpCE6HjZC6dJwlh-43">
          <mxGeometry y="110" width="230" height="40" as="geometry" />
        </mxCell>
        <mxCell id="HLsXiNpCE6HjZC6dJwlh-53" value="2" style="shape=partialRectangle;html=1;whiteSpace=wrap;connectable=0;strokeColor=inherit;overflow=hidden;fillColor=none;top=0;left=0;bottom=0;right=0;pointerEvents=1;fontSize=16;" vertex="1" parent="HLsXiNpCE6HjZC6dJwlh-52">
          <mxGeometry width="77" height="40" as="geometry">
            <mxRectangle width="77" height="40" as="alternateBounds" />
          </mxGeometry>
        </mxCell>
        <mxCell id="HLsXiNpCE6HjZC6dJwlh-54" value="1" style="shape=partialRectangle;html=1;whiteSpace=wrap;connectable=0;strokeColor=inherit;overflow=hidden;fillColor=none;top=0;left=0;bottom=0;right=0;pointerEvents=1;fontSize=16;" vertex="1" parent="HLsXiNpCE6HjZC6dJwlh-52">
          <mxGeometry x="77" width="76" height="40" as="geometry">
            <mxRectangle width="76" height="40" as="alternateBounds" />
          </mxGeometry>
        </mxCell>
        <mxCell id="HLsXiNpCE6HjZC6dJwlh-55" value="A freira" style="shape=partialRectangle;html=1;whiteSpace=wrap;connectable=0;strokeColor=inherit;overflow=hidden;fillColor=none;top=0;left=0;bottom=0;right=0;pointerEvents=1;fontSize=16;" vertex="1" parent="HLsXiNpCE6HjZC6dJwlh-52">
          <mxGeometry x="153" width="77" height="40" as="geometry">
            <mxRectangle width="77" height="40" as="alternateBounds" />
          </mxGeometry>
        </mxCell>
        <mxCell id="HLsXiNpCE6HjZC6dJwlh-56" value="Físico" style="rounded=0;whiteSpace=wrap;html=1;fillColor=#f8cecc;strokeColor=#b85450;" vertex="1" parent="1">
          <mxGeometry x="370" y="650" width="60" height="30" as="geometry" />
        </mxCell>
      </root>
    </mxGraphModel>
  </diagram>
</mxfile>
